<?xml version="1.0" encoding="utf-8"?>
<!-- Generator: Adobe Illustrator 16.0.3, SVG Export Plug-In . SVG Version: 6.00 Build 0)  -->
<!DOCTYPE svg PUBLIC "-//W3C//DTD SVG 1.1//EN" "http://www.w3.org/Graphics/SVG/1.1/DTD/svg11.dtd">
<svg version="1.1" id="Layer_1" xmlns="http://www.w3.org/2000/svg" xmlns:xlink="http://www.w3.org/1999/xlink" x="0px" y="0px"
	 width="120px" height="120px" viewBox="0 0 120 120" enable-background="new 0 0 120 120" xml:space="preserve">
<path fill="#FFFFFF" d="M20.873,66.103"/>
<path fill="#FFFFFF" d="M101.207,63.512l-8.253-21.313c-1.544-4.08-4.917-7.552-11.3-7.581H70.014H50.121H38.279
	c-6.354,0.029-9.728,3.501-11.299,7.581l-8.255,21.313c-3.277,0.423-9.078,4.274-9.068,11.57v27.137h8.054v8.662
	c-0.02,10.679,15.092,10.552,15.088,0v-8.662H60h27.134v8.662c0.032,10.552,15.146,10.679,15.155,0v-8.662h8.055V75.082
	C110.32,67.786,104.515,63.935,101.207,63.512z M25.492,85.842c-3.861,0.012-6.986-3.209-6.97-7.168
	c-0.016-3.987,3.109-7.211,6.97-7.178c3.848-0.033,6.974,3.19,6.969,7.178C32.465,82.633,29.339,85.853,25.492,85.842z M60,63.312
	h-0.067H27.318l6.225-16.783c0.751-2.382,1.917-4.086,4.67-4.128h21.72H60h21.789c2.712,0.042,3.881,1.745,4.668,4.128l6.227,16.783
	H60z M94.511,85.842c-3.888,0.012-7.015-3.209-7.036-7.168c0.021-3.987,3.148-7.211,7.036-7.178c3.821-0.033,6.945,3.19,6.97,7.178
	C101.456,82.633,98.332,85.853,94.511,85.842z"/>
<path fill="#FFFFFF" d="M103.129,66.103"/>
</svg>
