<?xml version="1.0" encoding="utf-8"?>
<!-- Generator: Adobe Illustrator 16.0.3, SVG Export Plug-In . SVG Version: 6.00 Build 0)  -->
<!DOCTYPE svg PUBLIC "-//W3C//DTD SVG 1.1//EN" "http://www.w3.org/Graphics/SVG/1.1/DTD/svg11.dtd">
<svg version="1.1" id="Layer_1" xmlns="http://www.w3.org/2000/svg" xmlns:xlink="http://www.w3.org/1999/xlink" x="0px" y="0px"
	 width="120px" height="120px" viewBox="0 0 120 120" enable-background="new 0 0 120 120" xml:space="preserve">
<g>
	<path fill="#FFFFFF" d="M98.816,47.452l3.635-3.636c1.644-1.642,1.525-4.222,0-5.863l-6.566-6.45c-1.643-1.642-4.223-1.525-5.864,0
		l-3.167,3.166c-4.808-3.401-10.202-5.98-16.067-7.388v-5.16h7.037c2.229,0,3.987-1.759,3.987-3.988v-1.407
		c0-2.229-1.759-3.988-3.987-3.988H44.518c-2.229,0-3.987,1.759-3.987,3.988v1.407c0,2.229,1.758,3.988,3.987,3.988h6.215v4.809
		C29.974,31.268,14.26,49.68,14.26,71.729c0,25.331,20.522,45.738,45.737,45.738s45.739-20.525,45.739-45.738
		C105.854,62.933,103.271,54.489,98.816,47.452z M60.115,107.968c-19.938,0-36.238-16.186-36.238-36.239
		c0-20.055,16.184-36.239,36.238-36.239c20.054,0,36.238,16.185,36.238,36.239C96.354,91.782,80.052,107.968,60.115,107.968z"/>
	<path fill="#FFFFFF" d="M64.924,56.6c0-2.698-2.111-4.809-4.809-4.809s-4.809,2.111-4.809,4.809v18.999
		c0,2.697,2.111,4.809,4.809,4.809c0.117,0,0.352,0,0.469,0s0.353,0,0.469,0h24.863c2.697,0,4.809-2.111,4.809-4.809
		s-2.111-4.81-4.809-4.81H64.924V56.6z"/>
</g>
</svg>
