<?xml version="1.0" encoding="utf-8"?>
<!-- Generator: Adobe Illustrator 16.0.3, SVG Export Plug-In . SVG Version: 6.00 Build 0)  -->
<!DOCTYPE svg PUBLIC "-//W3C//DTD SVG 1.1//EN" "http://www.w3.org/Graphics/SVG/1.1/DTD/svg11.dtd">
<svg version="1.1" id="Layer_1" xmlns="http://www.w3.org/2000/svg" xmlns:xlink="http://www.w3.org/1999/xlink" x="0px" y="0px"
	 width="120px" height="120px" viewBox="0 0 120 120" enable-background="new 0 0 120 120" xml:space="preserve">
<g>
	<path fill="#FFFFFF" d="M76.974,21.94c0,5.718-4.627,10.343-10.343,10.343c-5.717,0-10.342-4.625-10.342-10.343
		c0-5.716,4.625-10.341,10.342-10.341C72.346,11.599,76.974,16.225,76.974,21.94L76.974,21.94z"/>
	<path fill="#FFFFFF" d="M90.771,66.099c-2.02-0.909-15.353-7.535-15.353-7.535s-4.727-10.079-7.172-15.593
		c-2.303-5.193-3.958-6.544-7.231-6.544h-5.051c-2.646,0-3.614,0.969-5.231,1.878L37.079,49.919
		c-1.193,0.687-1.961,1.716-2.423,3.171l-2.93,19.654c-0.424,3.134,1.232,4.467,3.11,4.851c1.516,0.323,3.798-0.444,4.262-2.648
		c0.364-1.817,3.13-17.898,3.13-17.898l8.91-6.847c-1.474,6.829-2.969,14.302-3.455,16.848c-0.849,4.345,1.313,7.634,3.03,10.221
		c1.555,2.343,21.716,34.118,24.362,37.57c2.665,3.458,5.091,5.174,8.786,3.112c3.11-1.738,2.584-5.695,0.869-8.626
		c-1.716-2.933-22.058-36.017-22.058-36.017l3.413-14.746c0,0,2.363,3.374,3.576,5.273c0.585,0.89,1.192,1.253,2.787,2.12
		c1.879,1.031,10.99,5.172,13.756,6.425c2.464,1.091,5.514,1.516,6.728-0.667C94.163,69.553,92.609,66.948,90.771,66.099
		L90.771,66.099z"/>
	<path fill="#FFFFFF" d="M45.764,79.472l-4.121,14.523c0,0-8.605,12.444-10.99,15.919c-1.797,2.624-3.151,5.817-0.079,8.141
		c3.454,2.605,6.222-0.789,7.999-2.81c1.636-1.838,8.302-11.15,10.18-13.516c1.253-1.595,1.939-2.925,2.486-4.261
		c0.342-0.886,1.697-4.564,2.564-6.948L45.764,79.472z"/>
</g>
</svg>
