<?xml version="1.0" encoding="utf-8"?>
<!-- Generator: Adobe Illustrator 16.0.3, SVG Export Plug-In . SVG Version: 6.00 Build 0)  -->
<!DOCTYPE svg PUBLIC "-//W3C//DTD SVG 1.1//EN" "http://www.w3.org/Graphics/SVG/1.1/DTD/svg11.dtd">
<svg version="1.1" xmlns="http://www.w3.org/2000/svg" xmlns:xlink="http://www.w3.org/1999/xlink" x="0px" y="0px" width="120px"
	 height="120px" viewBox="0 0 120 120" enable-background="new 0 0 120 120" xml:space="preserve">
<g id="Layer_2" display="none">
	<rect x="-135" display="inline" width="532" height="528"/>
</g>
<g id="Layer_1">
	<g id="sunset">
		<g>
			<path fill="none" stroke="#FFFFFF" stroke-width="5" stroke-linecap="round" stroke-linejoin="round" stroke-miterlimit="10" d="
				M24.125,59.75c-6.75-8-5.75-19.75,2-26.5s19.75-5.75,26.5,2"/>
			
				<line fill="none" stroke="#FFFFFF" stroke-width="5" stroke-linecap="round" stroke-linejoin="round" stroke-miterlimit="10" x1="14.875" y1="32.5" x2="8.875" y2="29.75"/>
			
				<line fill="none" stroke="#FFFFFF" stroke-width="5" stroke-linecap="round" stroke-linejoin="round" stroke-miterlimit="10" x1="45.375" y1="21" x2="47.375" y2="15"/>
			
				<line fill="none" stroke="#FFFFFF" stroke-width="5" stroke-linecap="round" stroke-linejoin="round" stroke-miterlimit="10" x1="11.625" y1="51.25" x2="5.375" y2="52"/>
			
				<line fill="none" stroke="#FFFFFF" stroke-width="5" stroke-linecap="round" stroke-linejoin="round" stroke-miterlimit="10" x1="27.625" y1="21" x2="25.125" y2="15"/>
			<path fill="none" stroke="#FFFFFF" stroke-width="5" stroke-linecap="round" stroke-linejoin="round" stroke-miterlimit="10" d="
				M104.625,58c0-0.5,0-1.25,0-1.75c0-16.5-13.5-30-30-30s-30,13.5-30,30c0,3,0.5,6,1.25,8.75c-3.75-3.75-9-6.25-15-6.25
				c-11.75,0-21.25,9.5-21.25,21.25s9.5,21.25,21.25,21.25s49.75,0,60,0c13,0,23.75-10.75,23.75-23.75
				C114.625,69.5,110.625,62.5,104.625,58z"/>
		</g>
	</g>
</g>
</svg>
