<?xml version="1.0" encoding="utf-8"?>
<!-- Generator: Adobe Illustrator 16.0.3, SVG Export Plug-In . SVG Version: 6.00 Build 0)  -->
<!DOCTYPE svg PUBLIC "-//W3C//DTD SVG 1.1//EN" "http://www.w3.org/Graphics/SVG/1.1/DTD/svg11.dtd">
<svg version="1.1" xmlns="http://www.w3.org/2000/svg" xmlns:xlink="http://www.w3.org/1999/xlink" x="0px" y="0px" width="120px"
	 height="120px" viewBox="0 0 120 120" enable-background="new 0 0 120 120" xml:space="preserve">
<g id="Layer_2" display="none">
	<rect x="-135" y="-270" display="inline" width="532" height="528"/>
</g>
<g id="Layer_1">
	<g id="cloudy-night">
		<g>
			<path fill="none" stroke="#FFFFFF" stroke-width="5" stroke-linecap="round" stroke-linejoin="round" stroke-miterlimit="10" d="
				M103.5,55.75c0-0.5,0-1.25,0-1.75c0-16.5-13.5-30-30-30s-30,13.5-30,30c0,3,0.5,6,1.25,8.75c-3.75-3.75-9-6.25-15-6.25
				C18,56.5,8.5,66,8.5,77.75S18,99,29.75,99s49.75,0,60,0c13,0,23.75-10.75,23.75-23.75C113.5,67.25,109.5,60.25,103.5,55.75z"/>
			<path fill="none" stroke="#FFFFFF" stroke-width="5" stroke-linejoin="round" stroke-miterlimit="10" d="M51.25,34
				C47.5,26.5,40,21.5,31,21.5c-0.75,0-1.75,0-2.5,0.25c1.5,2.75,2.5,5.75,2.5,9c0,9.75-7.75,17.5-17.5,17.5
				c-1.5,0-3.25-0.25-4.75-0.75c1,5.5,3.75,10.5,8,14"/>
		</g>
	</g>
</g>
</svg>
