<?xml version="1.0" encoding="utf-8"?>
<!-- Generator: Adobe Illustrator 16.0.3, SVG Export Plug-In . SVG Version: 6.00 Build 0)  -->
<!DOCTYPE svg PUBLIC "-//W3C//DTD SVG 1.1//EN" "http://www.w3.org/Graphics/SVG/1.1/DTD/svg11.dtd">
<svg version="1.1" xmlns="http://www.w3.org/2000/svg" xmlns:xlink="http://www.w3.org/1999/xlink" x="0px" y="0px" width="120px"
	 height="120px" viewBox="0 0 120 120" enable-background="new 0 0 120 120" xml:space="preserve">
<g id="Layer_2" display="none">
	<rect x="-270" display="inline" width="532" height="528"/>
</g>
<g id="Layer_1">
	<g id="mostly_cloudy">
		<g>
			<path fill="none" stroke="#FFFFFF" stroke-width="5" stroke-linecap="round" stroke-linejoin="round" stroke-miterlimit="10" d="
				M101,54.25c0-0.25,0-0.75,0-1c0-16-12.75-28.75-28.75-28.75S43.5,37.25,43.5,53.25c0,2.5,0.25,4.75,1,7.25
				c-3.75-3.75-9-6-14.75-6C18,54.5,8.5,64,8.5,75.75S18,97,29.75,97s51.5,0,61.25,0c12.5,0,22.5-10,22.5-22.5
				C113.5,65.75,108.5,58,101,54.25z"/>
			<path fill="none" stroke="#FFFFFF" stroke-width="5" stroke-linecap="round" stroke-linejoin="round" stroke-miterlimit="10" d="
				M91,52c4.5,0,8.5,1.25,12,3.5"/>
		</g>
	</g>
</g>
</svg>
