<?xml version="1.0" encoding="utf-8"?>
<!-- Generator: Adobe Illustrator 16.0.3, SVG Export Plug-In . SVG Version: 6.00 Build 0)  -->
<!DOCTYPE svg PUBLIC "-//W3C//DTD SVG 1.1//EN" "http://www.w3.org/Graphics/SVG/1.1/DTD/svg11.dtd">
<svg version="1.1" xmlns="http://www.w3.org/2000/svg" xmlns:xlink="http://www.w3.org/1999/xlink" x="0px" y="0px" width="120px"
	 height="120px" viewBox="0 0 120 120" enable-background="new 0 0 120 120" xml:space="preserve">
<g id="Layer_2" display="none">
	<rect x="-405" y="-270" display="inline" width="532" height="528"/>
</g>
<g id="Layer_1">
	<g id="mostly_cloudy_3_">
		<g>
			<path fill="none" stroke="#FFFFFF" stroke-width="5" stroke-linecap="round" stroke-linejoin="round" stroke-miterlimit="10" d="
				M106.908,62.814c0-0.201,0-0.602,0-0.803c0-12.832-10.226-23.058-23.058-23.058c-12.833,0-23.058,10.226-23.058,23.058
				c0,2.006,0.2,3.81,0.802,5.814c-3.007-3.008-7.218-4.812-11.829-4.812c-9.424,0-17.043,7.618-17.043,17.042
				S40.342,97.1,49.766,97.1s41.303,0,49.122,0c10.025,0,18.045-8.02,18.045-18.045C116.933,72.037,112.923,65.821,106.908,62.814z"
				/>
			<path fill="none" stroke="#FFFFFF" stroke-width="5" stroke-linecap="round" stroke-linejoin="round" stroke-miterlimit="10" d="
				M98.888,61.01c3.609,0,6.817,1.002,9.624,2.807"/>
		</g>
	</g>
	<path fill="#FFFFFF" d="M54.5,57.709c0.792-4.917,0.133-8.473,7.766-16.678c0,0,0.447-0.409,0.734-0.596c0-0.153,0-0.325,0-0.431
		c0-10.325-8.35-18.552-18.674-18.552S25.713,29.68,25.713,40.005c0,1.613,0.131,3.065,0.615,4.679
		c-2.42-2.42-5.822-3.872-9.533-3.872c-7.582,0-13.72,6.013-13.72,13.595S9.197,68,16.779,68c2.552,0,7.152,0,12.369,0
		C31.776,62,43,52.959,54.5,57.709z"/>
</g>
</svg>
