<?xml version="1.0" encoding="utf-8"?>
<!-- Generator: Adobe Illustrator 16.0.3, SVG Export Plug-In . SVG Version: 6.00 Build 0)  -->
<!DOCTYPE svg PUBLIC "-//W3C//DTD SVG 1.1//EN" "http://www.w3.org/Graphics/SVG/1.1/DTD/svg11.dtd">
<svg version="1.1" xmlns="http://www.w3.org/2000/svg" xmlns:xlink="http://www.w3.org/1999/xlink" x="0px" y="0px" width="120px"
	 height="120px" viewBox="0 0 120 120" enable-background="new 0 0 120 120" xml:space="preserve">
<g id="Layer_2" display="none">
	<rect x="-135" y="-405" display="inline" width="532" height="528"/>
</g>
<g id="Layer_1">
	<g id="night-rain">
		<g>
			<path fill="none" stroke="#FFFFFF" stroke-width="5" stroke-linecap="round" stroke-linejoin="round" stroke-miterlimit="10" d="
				M89.5,90.129c13,0,23.75-10.75,23.75-23.75c0-8-4-15-10-19.5c0-0.5,0-1.25,0-1.75c0-16.5-13.5-30-30-30s-30,13.5-30,30
				c0,3,0.5,6,1.25,8.75c-3.75-3.75-9-6.25-15-6.25c-11.75,0-21.25,9.5-21.25,21.25s9.5,21.25,21.25,21.25"/>
			<path fill="none" stroke="#FFFFFF" stroke-width="5" stroke-linejoin="round" stroke-miterlimit="10" d="M51,25.129
				c-3.75-7.5-11.25-12.5-20.25-12.5c-0.75,0-1.75,0-2.5,0.25c1.5,2.75,2.5,5.75,2.5,9c0,9.75-7.75,17.5-17.5,17.5
				c-1.5,0-3.25-0.25-4.75-0.75c1,5.5,3.75,10.5,8,14"/>
			
				<line fill="none" stroke="#FFFFFF" stroke-width="5" stroke-linecap="round" stroke-linejoin="round" stroke-miterlimit="10" x1="81.5" y1="84.129" x2="77.25" y2="92.879"/>
			
				<line fill="none" stroke="#FFFFFF" stroke-width="5" stroke-linecap="round" stroke-linejoin="round" stroke-miterlimit="10" x1="69" y1="84.129" x2="64.75" y2="92.879"/>
			
				<line fill="none" stroke="#FFFFFF" stroke-width="5" stroke-linecap="round" stroke-linejoin="round" stroke-miterlimit="10" x1="56.5" y1="84.129" x2="52.25" y2="92.879"/>
			
				<line fill="none" stroke="#FFFFFF" stroke-width="5" stroke-linecap="round" stroke-linejoin="round" stroke-miterlimit="10" x1="44" y1="84.129" x2="39.75" y2="92.879"/>
			<path fill="none" stroke="#FFFFFF" stroke-width="5" stroke-linecap="round" stroke-linejoin="round" stroke-miterlimit="10" d="
				M65,84.879"/>
			
				<line fill="none" stroke="#FFFFFF" stroke-width="5" stroke-linecap="round" stroke-linejoin="round" stroke-miterlimit="10" x1="74" y1="101.629" x2="69.75" y2="110.379"/>
			
				<line fill="none" stroke="#FFFFFF" stroke-width="5" stroke-linecap="round" stroke-linejoin="round" stroke-miterlimit="10" x1="61.5" y1="101.629" x2="57.25" y2="110.379"/>
			
				<line fill="none" stroke="#FFFFFF" stroke-width="5" stroke-linecap="round" stroke-linejoin="round" stroke-miterlimit="10" x1="49" y1="101.629" x2="44.75" y2="110.379"/>
			
				<line fill="none" stroke="#FFFFFF" stroke-width="5" stroke-linecap="round" stroke-linejoin="round" stroke-miterlimit="10" x1="36.5" y1="101.629" x2="32.25" y2="110.379"/>
			<path fill="none" stroke="#FFFFFF" stroke-width="5" stroke-linecap="round" stroke-linejoin="round" stroke-miterlimit="10" d="
				M57.5,102.379"/>
		</g>
	</g>
</g>
</svg>
