<?xml version="1.0" encoding="utf-8"?>
<!-- Generator: Adobe Illustrator 16.0.3, SVG Export Plug-In . SVG Version: 6.00 Build 0)  -->
<!DOCTYPE svg PUBLIC "-//W3C//DTD SVG 1.1//EN" "http://www.w3.org/Graphics/SVG/1.1/DTD/svg11.dtd">
<svg version="1.1" xmlns="http://www.w3.org/2000/svg" xmlns:xlink="http://www.w3.org/1999/xlink" x="0px" y="0px" width="120px"
	 height="120px" viewBox="0 0 120 120" enable-background="new 0 0 120 120" xml:space="preserve">
<g id="Layer_2" display="none">
	<rect x="-270" y="-135" display="inline" width="532" height="528"/>
</g>
<g id="Layer_1">
	<g id="cloud-thunder">
		<g>
			<path fill="none" stroke="#FFFFFF" stroke-width="5" stroke-linecap="round" stroke-linejoin="round" stroke-miterlimit="10" d="
				M88.75,89.027c13,0,23.75-10.75,23.75-23.75c0-8-4-15-10-19.5c0-0.5,0-1.25,0-1.75c0-16.5-13.5-30-30-30s-30,13.5-30,30
				c0,3,0.5,6,1.25,8.75c-3.75-3.75-9-6.25-15-6.25c-11.75,0-21.25,9.5-21.25,21.25s9.5,21.25,21.25,21.25"/>
			
				<polygon fill="none" stroke="#FFFFFF" stroke-width="5" stroke-linecap="round" stroke-linejoin="round" stroke-miterlimit="10" points="
				55,61.527 46,86.527 58,85.277 50,114.027 72.75,79.027 62.5,79.027 75,61.527 			"/>
		</g>
	</g>
</g>
</svg>
